<?xml version="1.0" encoding="UTF-8" standalone="no"?>
<!-- Created with Inkscape (http://www.inkscape.org/) -->

<svg
   xmlns:dc="http://purl.org/dc/elements/1.1/"
   xmlns:cc="http://creativecommons.org/ns#"
   xmlns:rdf="http://www.w3.org/1999/02/22-rdf-syntax-ns#"
   xmlns:svg="http://www.w3.org/2000/svg"
   xmlns="http://www.w3.org/2000/svg"
   xmlns:sodipodi="http://sodipodi.sourceforge.net/DTD/sodipodi-0.dtd"
   xmlns:inkscape="http://www.inkscape.org/namespaces/inkscape"
   id="svg2"
   version="1.1"
   inkscape:version="0.48.4 r9939"
   width="876.2375"
   height="224.45"
   xml:space="preserve"
   sodipodi:docname="drupal_logo-blue_rgb.eps"><metadata
     id="metadata8"><rdf:RDF><cc:Work
         rdf:about=""><dc:format>image/svg+xml</dc:format><dc:type
           rdf:resource="http://purl.org/dc/dcmitype/StillImage" /><dc:title></dc:title></cc:Work></rdf:RDF></metadata><defs
     id="defs6"><clipPath
       clipPathUnits="userSpaceOnUse"
       id="clipPath18"><path
         d="M 0,1795.59 0,0 l 7009.87,0 0,1795.59 -7009.87,0 z"
         id="path20" /></clipPath></defs><sodipodi:namedview
     pagecolor="#ffffff"
     bordercolor="#666666"
     borderopacity="1"
     objecttolerance="10"
     gridtolerance="10"
     guidetolerance="10"
     inkscape:pageopacity="0"
     inkscape:pageshadow="2"
     inkscape:window-width="1280"
     inkscape:window-height="776"
     id="namedview4"
     showgrid="false"
     inkscape:zoom="1.3090114"
     inkscape:cx="438.11687"
     inkscape:cy="112.22437"
     inkscape:window-x="0"
     inkscape:window-y="24"
     inkscape:window-maximized="1"
     inkscape:current-layer="g10" /><g
     id="g10"
     inkscape:groupmode="layer"
     inkscape:label="ink_ext_XXXXXX"
     transform="matrix(1.25,0,0,-1.25,0,224.45)"><g
       id="g12"
       transform="scale(0.1,0.1)"><g
         id="g14"><g
           id="g16"
           clip-path="url(#clipPath18)"><path
             d="m 3283.13,1459.12 -294.59,0 0.48,-551.218 c 0,-161.093 -69.06,-291.402 -230.15,-291.402 -161.16,0 -230.85,130.309 -230.85,291.402 l 0,550.678 -293.84,0 -0.09,-550.678 c 0,-318.32 204.62,-576.3 522.99,-576.3 318.28,0 525.96,257.98 525.96,576.3 l 0.09,551.218"
             style="fill:#50abe4;fill-opacity:1;fill-rule:nonzero;stroke:none"
             id="path22" /><path
             d="m 5939.58,360.031 293.148,0 0,1434.95 -293.148,0 0,-1434.95 z"
             style="fill:#50abe4;fill-opacity:1;fill-rule:nonzero;stroke:none"
             id="path24" /><path
             d="m 6449.16,1742.07 0,51.55 228.46,0 0,-51.55 -83.56,0 0,-227.21 -61.3,0 0,227.21 -83.6,0"
             style="fill:#50abe4;fill-opacity:1;fill-rule:nonzero;stroke:none"
             id="path26" /><path
             d="m 6795.89,1793.62 65.21,-191.67 0.78,0 61.66,191.67 86.33,0 0,-278.76 -57.39,0 0,197.56 -0.8,0 -68.31,-197.56 -47.27,0 -68.3,195.61 -0.78,0 0,-195.61 -57.39,0 0,278.76 86.26,0"
             style="fill:#50abe4;fill-opacity:1;fill-rule:nonzero;stroke:none"
             id="path28" /><path
             d="m 1994.55,1471.1 c -252.69,58.32 -412.1,-192.72 -418.72,-206.18 -3.25,-6.6 -3.38,-10.46 -14.57,-10.17 -9.25,0.2 -10.3,10.17 -10.3,10.17 l -31.36,192.03 -262.61,0 0,-1095.97 294.37,0 0,593.235 c 0,48.485 130.54,280.905 383.46,221.075 127.92,-30.26 182.17,-84.53 182.17,-84.53 0,0 0,211.55 0,333.86 -47.33,24.68 -79.8,36.65 -122.44,46.48"
             style="fill:#50abe4;fill-opacity:1;fill-rule:nonzero;stroke:none"
             id="path30" /><path
             d="m 3967.94,1193.39 c 162.25,0 293.74,-131.52 293.74,-293.652 0,-162.269 -131.49,-293.789 -293.74,-293.789 -162.22,0 -293.67,131.52 -293.67,293.789 0,162.132 131.45,293.652 293.67,293.652 z M 3682.6,0 l 0,394.352 c 0.03,0 0.08,-0.043 0.1,-0.071 l 0.04,147.68 c 0,0 0.47,11.809 11.12,11.961 9.5,0.098 11.62,-6.192 13.93,-11.961 22.32,-55.539 145.07,-267.121 417.47,-200.75 243.85,68.687 422.71,292.609 422.71,558.527 0,320.402 -259.81,580.232 -580.27,580.232 -320.47,0 -580.26,-259.83 -580.26,-580.232 0,0 0,-793.199 0,-899.738 l 295.16,0"
             style="fill:#50abe4;fill-opacity:1;fill-rule:nonzero;stroke:none"
             id="path32" /><path
             d="m 5533.78,899.738 c 0,-162.269 -131.5,-293.789 -293.69,-293.789 -162.23,0 -293.75,131.52 -293.75,293.789 0,162.132 131.52,293.652 293.75,293.652 162.19,0 293.69,-131.52 293.69,-293.652 z m -8.36,-539.25 295.16,0 0,539.25 c 0,320.402 -259.76,580.232 -580.25,580.232 -320.5,0 -580.28,-259.83 -580.28,-580.232 0,-265.918 178.86,-489.84 422.71,-558.527 272.43,-66.371 395.13,145.211 417.47,200.75 2.32,5.769 4.41,12.059 13.94,11.961 10.64,-0.152 11.08,-11.961 11.08,-11.961"
             style="fill:#50abe4;fill-opacity:1;fill-rule:nonzero;stroke:none"
             id="path34" /><path
             d="m 414.789,1547.23 -118.367,0 0,-935.851 121.562,-3.109 c 249.297,0 409.86,22.679 409.86,470.92 0,429.84 -141.758,468.04 -413.055,468.04 z M 334.855,362.789 0,362.789 0,1795.59 l 359.285,0 c 435.063,0 765.035,-79.83 765.035,-716.4 0,-630.44 -349.523,-716.401 -789.465,-716.401"
             style="fill:#50abe4;fill-opacity:1;fill-rule:nonzero;stroke:none"
             id="path36" /></g></g></g></g></svg>