<svg xmlns:svg="http://www.w3.org/2000/svg" xmlns="http://www.w3.org/2000/svg" version="1.1" width="876.24" height="224.45" xml:space="preserve"><defs><clipPath><path d="M0 1795.59 0 0l7009.87 0 0 1795.59-7009.87 0z"/></clipPath></defs><g transform="matrix(1.25,0,0,-1.25,0,224.45)"><g transform="scale(0.1,0.1)"><g clip-path="url(#clipPath18)"><path d="m3283.13 1459.12-294.59 0 0.48-551.22c0-161.09-69.06-291.4-230.15-291.4-161.16 0-230.85 130.31-230.85 291.4l0 550.68-293.84 0-0.09-550.68c0-318.32 204.62-576.3 522.99-576.3 318.28 0 525.96 257.98 525.96 576.3l0.09 551.22M5939.58 360.03l293.15 0 0 1434.95-293.15 0 0-1434.95M5939.58 360.03l293.15 0 0 1434.95-293.15 0 0-1434.95M5939.58 360.03l293.15 0 0 1434.95-293.15 0 0-1434.95M5939.58 360.03l293.15 0 0 1434.95-293.15 0 0-1434.95" fill="#50abe4"/><path d="m5939.58 360.03 293.15 0 0 1434.95-293.15 0 0-1434.95z" fill="#50abe4"/><path d="m6449.16 1742.07 0 51.55 228.46 0 0-51.55-83.56 0 0-227.21-61.3 0 0 227.21-83.6 0" fill="#50abe4"/><path d="m6795.89 1793.62 65.21-191.67 0.78 0 61.66 191.67 86.33 0 0-278.76-57.39 0 0 197.56-0.8 0-68.31-197.56-47.27 0-68.3 195.61-0.78 0 0-195.61-57.39 0 0 278.76 86.26 0" fill="#50abe4"/><path d="m1994.55 1471.1c-252.69 58.32-412.1-192.72-418.72-206.18-3.25-6.6-3.38-10.46-14.57-10.17-9.25 0.2-10.3 10.17-10.3 10.17l-31.36 192.03-262.61 0 0-1095.97 294.37 0 0 593.24c0 48.49 130.54 280.9 383.46 221.08 127.92-30.26 182.17-84.53 182.17-84.53 0 0 0 211.55 0 333.86-47.33 24.68-79.8 36.65-122.44 46.48" fill="#50abe4"/><path d="m3967.94 1193.39c162.25 0 293.74-131.52 293.74-293.65 0-162.27-131.49-293.79-293.74-293.79-162.22 0-293.67 131.52-293.67 293.79 0 162.13 131.45 293.65 293.67 293.65zM3682.6 0l0 394.35c0.03 0 0.08-0.04 0.1-0.07l0.04 147.68c0 0 0.47 11.81 11.12 11.96 9.5 0.1 11.62-6.19 13.93-11.96 22.32-55.54 145.07-267.12 417.47-200.75 243.85 68.69 422.71 292.61 422.71 558.53 0 320.4-259.81 580.23-580.27 580.23-320.47 0-580.26-259.83-580.26-580.23 0 0 0-793.2 0-899.74l295.16 0" fill="#50abe4"/><path d="m5533.78 899.74c0-162.27-131.5-293.79-293.69-293.79-162.23 0-293.75 131.52-293.75 293.79 0 162.13 131.52 293.65 293.75 293.65 162.19 0 293.69-131.52 293.69-293.65zm-8.36-539.25 295.16 0 0 539.25c0 320.4-259.76 580.23-580.25 580.23-320.5 0-580.28-259.83-580.28-580.23 0-265.92 178.86-489.84 422.71-558.53 272.43-66.37 395.13 145.21 417.47 200.75 2.32 5.77 4.41 12.06 13.94 11.96 10.64-0.15 11.08-11.96 11.08-11.96" fill="#50abe4"/><path d="m414.79 1547.23-118.37 0 0-935.85 121.56-3.11c249.3 0 409.86 22.68 409.86 470.92 0 429.84-141.76 468.04-413.05 468.04zM334.86 362.79 0 362.79 0 1795.59l359.29 0c435.06 0 765.04-79.83 765.04-716.4 0-630.44-349.52-716.4-789.46-716.4" fill="#50abe4"/></g></g></g></svg>